# xmcd
#
# Track frame offsets:
#	150
#	15355
#	28729
#	39672
#	50835
#	62140
#	75516
#	88112
#	99253
#	112368
#	123714
#	136557
#	151072
#	164514
#	183875
#	198072
#	214494
#	226651
#	239057
#	258182
#
# Disc length: 3607 seconds
#
# Revision: 1
# Processed by: cddbd v1.5.2PL0 Copyright (c) Steve Scherf et al.
# Submitted via: audiograbber 1.83.01
#
DISCID=0b0e1514
DTITLE=Various Artist - The Roots of Adele
DYEAR=2012
DGENRE=Soul
TTITLE0=Peggy Lee - Fever
TTITLE1=Aretha Franklin - All Night Long
TTITLE2=Etta James - Don't Cry Baby
TTITLE3=Dinah Washington - This Bitter Earth
TTITLE4=Dinah Washington - What a Diff'rence a Day Made
TTITLE5=Etta James - All I Could Do Was Cry
TTITLE6=Aretha Franklin - Today I Sing The Blues
TTITLE7=Timi Yuro - Hurt
TTITLE8=Mary Wells - Bye Bye Baby
TTITLE9=Sam Cooke - Sad Mood
TTITLE10=The Supremes - Who's Lovin' You
TTITLE11=Billie Holiday - Gloomy Sunday
TTITLE12=Billie Holiday - There Is No Greater Love
TTITLE13=Nina Simone - Little Girl Blue
TTITLE14=Peggy Lee - Don't Smoke in Bed
TTITLE15=Timi Yumo - Cry
TTITLE16=Mary Wells - Please Forgive Me
TTITLE17=Mable John - Who Wouldn't Love a Man Like That
TTITLE18=Ella Fitzgerald - Cry Me a River
TTITLE19=Sam Cooke - You Send Me
EXTD=
EXTT0=
EXTT1=
EXTT2=
EXTT3=
EXTT4=
EXTT5=
EXTT6=
EXTT7=
EXTT8=
EXTT9=
EXTT10=
EXTT11=
EXTT12=
EXTT13=
EXTT14=
EXTT15=
EXTT16=
EXTT17=
EXTT18=
EXTT19=
PLAYORDER=
